<svg version="1.1" xmlns="http://www.w3.org/2000/svg" xmlns:xlink="http://www.w3.org/1999/xlink" width="64" height="64">
	<defs>
		<symbol id="casa" viewBox="0 0 460.298 460.297">
			<title>Casa</title>
			<path d="M230.149 120.939L65.986 256.274c0 .191-.048.472-.144.855-.094.38-.144.656-.144.852v137.041c0 4.948 1.809 9.236 5.426 12.847 3.616 3.613 7.898 5.431 12.847 5.431h109.63V303.664h73.097v109.64h109.629c4.948 0 9.236-1.814 12.847-5.435 3.617-3.607 5.432-7.898 5.432-12.847V257.981c0-.76-.104-1.334-.288-1.707L230.149 120.939z"></path>
			<path d="M457.122 225.438L394.6 173.476V56.989c0-2.663-.856-4.853-2.574-6.567-1.704-1.712-3.894-2.568-6.563-2.568h-54.816c-2.666 0-4.855.856-6.57 2.568-1.711 1.714-2.566 3.905-2.566 6.567v55.673l-69.662-58.245c-6.084-4.949-13.318-7.423-21.694-7.423-8.375 0-15.608 2.474-21.698 7.423L3.172 225.438c-1.903 1.52-2.946 3.566-3.14 6.136-.193 2.568.472 4.811 1.997 6.713l17.701 21.128c1.525 1.712 3.521 2.759 5.996 3.142 2.285.192 4.57-.476 6.855-1.998L230.149 95.817l197.57 164.741c1.526 1.328 3.521 1.991 5.996 1.991h.858c2.471-.376 4.463-1.43 5.996-3.138l17.703-21.125c1.522-1.906 2.189-4.145 1.991-6.716-.195-2.563-1.242-4.609-3.141-6.132z"></path>
		</symbol>

		<symbol id="alarm" viewBox="0 0 64 64">
			<title>Alarme</title>
			<rect x="7" y="27" width="8" height="2"/>
			<rect x="49" y="27" width="8" height="2"/>
			<rect x="31" y="3" width="2" height="8"/>
			<path d="M47.2,20.4l6.9-4l-1-1.7l-6.9,4L47.2,20.4z"/>
			<path d="M41.4,13.8l4-6.9l-1.7-1l-4,6.9L41.4,13.8z"/>
			<path d="M24.4,12.8l-4-6.9l-1.7,1l4,6.9L24.4,12.8z"/>
			<path d="M17.8,18.6l-6.9-4l-1,1.7l6.9,4L17.8,18.6z"/>
			<path d="M13,52v-5c0-2.2,1.8-4,4-4h30c2.2,0,4,1.8,4,4v5H13z"/>
			<path d="M32,14c-7.7,0-14,6.3-14,14v13h17V28c0-1.7,1.3-3,3-3s3,1.3,3,3v13h5V28C46,20.3,39.7,14,32,14z"/>

		</symbol>

		<symbol id="smoke-sensor" viewBox="0 0 64 64">
			<title>Detector de fumaça</title>
			<path d="M24 23c0-1.103-.897-2-2-2s-2 .897-2 2v8h4zm20 0c0-1.103-.897-2-2-2s-2 .897-2 2v8h4z"></path>
			<path d="M15.598 28.332A2.997 2.997 0 0018 30.943V23c0-2.206 1.794-4 4-4s4 1.794 4 4v8h2v-8c0-2.206 1.794-4 4-4s4 1.794 4 4v8h2v-8c0-2.206 1.794-4 4-4s4 1.794 4 4v7.942a2.998 2.998 0 002.402-2.611L49.883 15H14.117z"></path>
			<path d="M34 23c0-1.103-.897-2-2-2s-2 .897-2 2v8h4zM56.838 3H7.162a4.167 4.167 0 00-3.948 5.478l.558 1.676A4.157 4.157 0 007.721 13H56.28a4.159 4.159 0 003.949-2.846l.558-1.675A4.167 4.167 0 0056.838 3zM16 9a1 1 0 01-1 1H9a1 1 0 01-1-1V7a1 1 0 011-1h6a1 1 0 011 1zm33 2h-2V9h2zm0-4h-2V5h2zm4 4h-2V9h2zm0-4h-2V5h2zm4 4h-2V9h2zm0-4h-2V5h2zM37.293 54.207c-.851-.85-1.791-1.79-2.146-3.094C34.239 51.34 33 52.014 33 54v1h-2v-3c0-1.73-.653-2.463-1.213-2.772-.392 1.093-1.264 1.943-2.115 2.773C26.358 53.281 25 54.604 25 57c0 1.383 1.463 4 7 4s7-2.617 7-4c0-1.086-.791-1.877-1.707-2.793z"></path>
			<path d="M42.098 41.458C41.214 42.193 40 44.094 40 49h-2c0-2.57.326-4.476.809-5.895a16.753 16.753 0 00-.738-1.08c-.874-1.189-1.772-2.413-2.01-4.759-.806.383-1.93 1.328-2.567 3.601C33.809 42.01 34 43.37 34 45h-2c0-5.754-2.598-7.37-4.054-7.823-.233 2.427-1.177 3.72-2.023 4.879-.257.353-.498.7-.726 1.066.48 1.417.803 3.318.803 5.878h-2c0-4.894-1.208-6.797-2.099-7.536-.326 2.312-1.411 3.717-2.465 5.084C18.183 48.172 17 49.706 17 53c0 5.898 4.132 8 8 8h.102C23.54 59.72 23 58.101 23 57c0-3.239 1.816-5.009 3.276-6.432C27.345 49.526 28 48.845 28 48v-1h1c1.127 0 3.073.694 3.755 3.089C33.807 49.278 35.108 49 36 49h1v1c0 1.086.791 1.877 1.707 2.793C39.782 53.868 41 55.086 41 57c0 1.101-.54 2.72-2.102 4H39c3.868 0 8-2.102 8-8 0-3.294-1.183-4.828-2.436-6.452-1.056-1.367-2.141-2.774-2.466-5.09z"></path>
		</symbol>
		
		<symbol id="gas-sensor" viewBox="0 0 452.608 452.608">
			<title>Detector de gas</title>
			<path d="M285.184 92.672V63.488h6.656c17.408 0 31.744-14.336 31.744-31.744S309.248 0 291.84 0H160.768c-17.408 0-31.744 14.336-31.744 31.744s14.336 31.744 31.744 31.744h6.656v29.184c-38.912 2.56-69.12 34.816-69.12 73.728v80.384h256V166.4c0-38.912-30.208-71.168-69.12-73.728zm-25.6-.512h-20.48V80.896h-25.6V92.16h-20.48V62.976h66.56V92.16zM98.304 272.384v81.92c0 28.16 15.872 53.76 40.96 66.56v31.744h174.08v-31.744c25.088-12.8 40.96-38.4 40.96-66.56v-81.92h-256z"></path>
		</symbol>

		<symbol id="led-lamp" viewBox="-104 0 448 448">
			<title>Lampada</title>
			<path d="M187 329.945L237.488 128H1.984l50.489 201.938A7.993 7.993 0 0060.23 336h119.008a7.999 7.999 0 007.762-6.055zM74.664 319.762a7.996 7.996 0 01-9.695-5.824l-40-160a8.003 8.003 0 015.828-9.704 8.007 8.007 0 019.7 5.828l40 160a8.005 8.005 0 01-5.833 9.7zm24.238.148a8.002 8.002 0 01-9.094-6.727l-24-160a8 8 0 016.712-9.113 8.007 8.007 0 019.113 6.715l24 160a7.984 7.984 0 01-1.457 5.95 7.98 7.98 0 01-5.239 3.175zm28.832-7.91a8 8 0 01-16 0V152a8 8 0 0116 0zm14.036 8a7.307 7.307 0 01-1.204-.09c-4.363-.656-7.37-4.726-6.718-9.094l24-160a8 8 0 019.113-6.71 8 8 0 016.71 9.109l-24 160A8 8 0 01141.77 320zm32.734-6.062a7.996 7.996 0 01-9.695 5.824c-4.286-1.07-6.891-5.414-5.825-9.7l40-160a8.005 8.005 0 019.7-5.828 8.003 8.003 0 015.828 9.704zM119.734 0C56.598.082 4.293 49.008 0 112h239.473C235.18 49.008 182.875.082 119.734 0zm48 352h-96v72c0 13.254 10.746 24 24 24h48c13.258 0 24-10.746 24-24zm-24 88h-48a8 8 0 010-16h48a8 8 0 010 16zm0-32h-48a8 8 0 010-16h48a8 8 0 010 16zm0-32h-48a8 8 0 010-16h48a8 8 0 010 16zm0 0"></path>
		</symbol>

		<symbol id="camera" viewBox="0 0 64 64">
			<title>Camera STV</title>
			<polygon points="5,39 17,36 25,44 22,57"/>
			<path d="M52,50h3V33h-3v7h-6l-4-4l12-12L38,7L14,30l17,17l9-9l5,5h7V50z M36,35c-1.7,0-3-1.3-3-3c0-1.7,1.3-3,3-3
				s3,1.3,3,3C39,33.7,37.7,35,36,35z"/>
		</symbol>

		<symbol id="garage" viewBox="0 0 448 448">
			<title>Garagem</title>
			<path d="M0 151.219v296h48v-256c0-4.418 3.578-8 8-8h336c4.422 0 8 3.582 8 8v256h48v-296H0zm32 104H16v-48h16v48zm400 0h-16v-48h16v48zM224 .781L18.805 135.219h410.39z"></path>
			<path d="M312 391.219h24c0-4.41-3.586-8-8-8H120c-4.414 0-8 3.59-8 8h24v16h-24v8h224v-8h-24v-16zm-8 32v16c0 4.41 3.586 8 8 8h16c4.414 0 8-3.59 8-8v-16h-32zm-192 0v16c0 4.41 3.586 8 8 8h16c4.414 0 8-3.59 8-8v-16h-32zm160-120h-96c-26.469 0-48 21.531-48 48v16h192v-16c0-26.469-21.531-48-48-48zm72 56h-8a8 8 0 000 16h8a8 8 0 000-16zm-232 0h-8a8 8 0 000 16h8a8 8 0 000-16zm256-144H80c-4.422 0-8 3.582-8 8v32c0 4.418 3.578 8 8 8h288c4.422 0 8-3.582 8-8v-32c0-4.418-3.578-8-8-8z"></path>
		</symbol>

		<symbol id="thermometer" viewBox="0 0 64 64">
			<title>Thermometer</title>
			  <path d="M41,30.84V18c0-5.52-4.48-10-10-10c-5.52,0-10,4.48-10,10v12.84c-3.06,2.75-5,6.72-5,11.16c0,8.28,6.72,15,15,15
				    c8.28,0,15-6.72,15-15C46,37.56,44.06,33.59,41,30.84z M31,53c-6.08,0-11-4.93-11-11c0-3.86,1.99-7.25,5-9.21V18c0-3.31,2.69-6,6-6
				    s6,2.69,6,6v14.79c3.01,1.96,5,5.35,5,9.21C42,48.07,37.07,53,31,53z"/>
			  <path d="M33.5,35.47V23h-5v12.47C25.87,36.48,24,39.02,24,42c0,3.87,3.13,7,7,7c3.87,0,7-3.13,7-7C38,39.02,36.13,36.48,33.5,35.47z"/>
			  <rect x="44" y="15" width="8" height="2"/>
			  <rect x="44" y="21" width="8" height="2"/>
			  <rect x="44" y="27" width="8" height="2"/>
		</symbol>

		<symbol id="user" viewBox="0 0 64 64">
			<title>User</title>
			<circle cx="32" cy="22" r="11"/>
			<path d="M39,33.5c-2,1-4,2-7,2c-3,0-5-1-7-2C17,36.5,12,44,12,52h40C52,44,47,36.5,39,33.5z"/>
		</symbol>

		<symbol id="plug" viewBox="0 0 480 480">
			<title>Economia de energia</title>
			<path d="M352 165.267h-42v-83c0-4.42-3.58-8-8-8s-8 3.58-8 8v83H186v-83c0-4.42-3.58-8-8-8s-8 3.58-8 8v83h-42c-4.42 0-8 3.58-8 8s3.58 8 8 8h7v89c0 57.9 47.1 105 105 105s105-47.1 105-105v-89h7c4.42 0 8-3.58 8-8s-3.58-8-8-8zm-80.946 104.782l-23.898 47.796a8 8 0 01-14.31-7.156l15.317-30.633c1.33-2.66-.604-5.789-3.578-5.789H216.23c-6.442 0-9.959-6.428-7.384-11.578l24-48a8 8 0 0114.31 7.156l-15.317 30.633c-1.33 2.66.604 5.789 3.578 5.789H264c5.733 0 9.946 5.998 7.054 11.782zm192.991 32.206a8 8 0 01-5.962-9.615c.309-1.313.605-2.633.89-3.955.93-4.319 5.184-7.062 9.505-6.138a8.002 8.002 0 016.138 9.505 248.196 248.196 0 01-.954 4.242c-1.011 4.304-5.321 6.971-9.617 5.961zM93.45 431.341C36.411 387.302.116 318.49 0 241.632-.198 109.143 107.508 1.267 240 1.267c132.373 0 240 107.067 240 240a8 8 0 01-16 0c0-123.513-100.485-223.999-223.998-224-59.743 0-115.994 23.383-158.391 65.843-95.521 95.662-85.552 252.822 21.616 335.567a7.998 7.998 0 011.443 11.221 7.997 7.997 0 01-11.22 1.443zm371-104.914c-30.39 80.06-101.7 138.23-186.08 151.79-24.426 3.915-46.37-14.976-46.37-39.5v-28.45h-9c-4.42 0-8-3.58-8-8v-4.13c0-4.82 4.24-8.56 9.02-7.92 10.5 1.39 21.26 1.42 31.98-.01 4.77-.63 9 3.12 9 7.94v4.12c0 4.42-3.58 8-8 8h-9v28.45c0 14.819 13.273 26.043 27.83 23.7 78.75-12.66 145.29-66.94 173.66-141.67 1.57-4.13 6.19-6.21 10.32-4.64s6.21 6.19 4.64 10.32z"></path>
		</symbol>

		<symbol id="grid" viewBox="0 -32 448 448">
			<title>Portão da grade</title>
			<path d="M48 272h352v32H48zm0 48h352v32H48zM0 0h448v16H0zm0 0"></path>
			<path d="M416 168v184h16V32H16v320h16V72a8 8 0 018-8h368a8 8 0 018 8zm0 0"></path>
			<path d="M48 128h352v32H48zm0-48h352v32H48zM0 368h448v16H0zm48-192h352v32H48zm0 48h352v32H48zm0 0"></path>
		</symbol>

		<symbol  id="menu" viewBox="0 0 384 384">
			<table>Abrir menu</table>
			<path d="M0 277.333h384V320H0zm0-106.666h384v42.667H0zM0 64h384v42.667H0z"></path>
		</symbol>

		<symbol  id="close" viewBox="0 0 357 357">
			<title>Fechar menu</title>
			<path d="M357 35.7L321.3 0 178.5 142.8 35.7 0 0 35.7l142.8 142.8L0 321.3 35.7 357l142.8-142.8L321.3 357l35.7-35.7-142.8-142.8z"></path>
		</symbol>

		<symbol id="smarthouse" viewBox="0 0 30 30">
			<title>Smarthouse</title>
			<path d="M21.9 26.6c0 .6-.4 1-1 1s-1-.4-1-1 .4-1 1-1 1 .4 1 1zm-14.4-1c-.6 0-1-.4-1-1V12.3l8.3-7.6 8.3 7.6v3.6c.7.1 1.4.4 2 .7v-2.4l1.2 1.1 1.3-1.5L14.8 2 2 13.7l1.3 1.5 1.2-1.1v10.5c0 1.7 1.3 3 3 3h10.4l-2-2H7.5zm13.4-4.2c-1.2 0-2.5.6-3.4 1.5l-.7.7 1.4 1.4.7-.7c.5-.5 1.4-.9 2-.9.7 0 1.5.3 2 .9l.7.7 1.4-1.4-.7-.7c-.9-.9-2.2-1.5-3.4-1.5zm6-1.2c-1.6-1.6-3.8-2.6-6-2.6s-4.3.9-6 2.6l-.7.7 1.4 1.4.7-.7c1.3-1.3 2.9-2 4.6-2 1.7 0 3.3.7 4.6 2l.7.7 1.4-1.4-.7-.7z"></path>
		</symbol>
	</defs>
</svg>